<svg width="51" height="51" viewBox="0 0 51 51" fill="none" xmlns="http://www.w3.org/2000/svg">
<path d="M21.0518 19.9612C23.8611 19.6496 26.7691 19.6496 29.5784 19.9612C29.846 19.9908 30.096 20.1091 30.2885 20.2974C30.481 20.4856 30.6048 20.7329 30.6403 20.9998C30.9753 23.8662 30.9753 26.7638 30.6403 29.6302C30.6047 29.8975 30.4805 30.1451 30.2875 30.3334C30.0945 30.5217 29.8439 30.6398 29.5758 30.6688C26.743 30.9807 23.8846 30.9807 21.0518 30.6688C20.7842 30.6392 20.5342 30.5209 20.3418 30.3326C20.1493 30.1444 20.0254 29.8971 19.9899 29.6302C19.6544 26.7632 19.6544 23.8668 19.9899 20.9998C20.0255 20.7325 20.1498 20.4849 20.3428 20.2966C20.5358 20.1083 20.7864 19.9902 21.0544 19.9612" fill="url(#paint0_linear_38_951)"/>
<path fill-rule="evenodd" clip-rule="evenodd" d="M33.1042 0C33.6206 0 34.1159 0.205161 34.4811 0.570352C34.8463 0.935542 35.0515 1.43085 35.0515 1.9473V9.54698C36.5373 9.8415 37.9013 10.5729 38.9689 11.6474C40.0365 12.7219 40.7591 14.0907 41.044 15.5784H48.6826C49.199 15.5784 49.6943 15.7836 50.0595 16.1488C50.4247 16.514 50.6299 17.0093 50.6299 17.5257C50.6299 18.0422 50.4247 18.5375 50.0595 18.9027C49.6943 19.2679 49.199 19.473 48.6826 19.473H41.4438C41.539 20.7712 41.6022 22.0694 41.6333 23.3676H46.0862C46.6026 23.3676 47.0979 23.5728 47.4631 23.938C47.8283 24.3032 48.0335 24.7985 48.0335 25.3149C48.0335 25.8314 47.8283 26.3267 47.4631 26.6919C47.0979 27.0571 46.6026 27.2622 46.0862 27.2622H41.6333C41.6022 28.5604 41.539 29.8587 41.4438 31.1569H48.6826C49.199 31.1569 49.6943 31.362 50.0595 31.7272C50.4247 32.0924 50.6299 32.5877 50.6299 33.1042C50.6299 33.6206 50.4247 34.1159 50.0595 34.4811C49.6943 34.8463 49.199 35.0515 48.6826 35.0515H41.044C40.7591 36.5392 40.0365 37.9079 38.9689 38.9825C37.9013 40.057 36.5373 40.7884 35.0515 41.0829V48.6826C35.0515 49.199 34.8463 49.6943 34.4811 50.0595C34.1159 50.4247 33.6206 50.6299 33.1042 50.6299C32.5877 50.6299 32.0924 50.4247 31.7272 50.0595C31.362 49.6943 31.1569 49.199 31.1569 48.6826V41.4802C29.8621 41.5719 28.5639 41.6325 27.2622 41.6619V46.0862C27.2622 46.6026 27.0571 47.0979 26.6919 47.4631C26.3267 47.8283 25.8314 48.0335 25.3149 48.0335C24.7985 48.0335 24.3032 47.8283 23.938 47.4631C23.5728 47.0979 23.3676 46.6026 23.3676 46.0862V41.6619C22.0682 41.6318 20.7696 41.5712 19.473 41.4802V48.6826C19.473 49.199 19.2679 49.6943 18.9027 50.0595C18.5375 50.4247 18.0422 50.6299 17.5257 50.6299C17.0093 50.6299 16.514 50.4247 16.1488 50.0595C15.7836 49.6943 15.5784 49.199 15.5784 48.6826V41.0829C14.0926 40.7884 12.7285 40.057 11.6609 38.9825C10.5933 37.9079 9.87082 36.5392 9.58592 35.0515H1.9473C1.43085 35.0515 0.935542 34.8463 0.570352 34.4811C0.205161 34.1159 0 33.6206 0 33.1042C0 32.5877 0.205161 32.0924 0.570352 31.7272C0.935542 31.362 1.43085 31.1569 1.9473 31.1569H9.18608C9.09088 29.8587 9.02683 28.5604 8.99395 27.2622H4.54371C4.02725 27.2622 3.53195 27.0571 3.16676 26.6919C2.80157 26.3267 2.5964 25.8314 2.5964 25.3149C2.5964 24.7985 2.80157 24.3032 3.16676 23.938C3.53195 23.5728 4.02725 23.3676 4.54371 23.3676H8.99395C9.02683 22.0694 9.09088 20.7712 9.18608 19.473H1.9473C1.43085 19.473 0.935542 19.2679 0.570352 18.9027C0.205161 18.5375 0 18.0422 0 17.5257C0 17.0093 0.205161 16.514 0.570352 16.1488C0.935542 15.7836 1.43085 15.5784 1.9473 15.5784H9.58592C9.87082 14.0907 10.5933 12.7219 11.6609 11.6474C12.7285 10.5729 14.0926 9.8415 15.5784 9.54698V1.9473C15.5784 1.43085 15.7836 0.935542 16.1488 0.570352C16.514 0.205161 17.0093 0 17.5257 0C18.0422 0 18.5375 0.205161 18.9027 0.570352C19.2679 0.935542 19.473 1.43085 19.473 1.9473V9.14973C20.7678 9.05799 22.066 8.99741 23.3676 8.96798V4.54371C23.3676 4.02725 23.5728 3.53195 23.938 3.16676C24.3032 2.80157 24.7985 2.5964 25.3149 2.5964C25.8314 2.5964 26.3267 2.80157 26.6919 3.16676C27.0571 3.53195 27.2622 4.02725 27.2622 4.54371V8.96798C28.5639 8.99741 29.8621 9.05799 31.1569 9.14973V1.9473C31.1569 1.43085 31.362 0.935542 31.7272 0.570352C32.0924 0.205161 32.5877 0 33.1042 0ZM30.0092 16.0899C26.8893 15.7438 23.7406 15.7438 20.6206 16.0899C18.2891 16.3496 16.3989 18.1878 16.1237 20.5479C15.7531 23.7151 15.7531 26.9147 16.1237 30.0819C16.3989 32.4447 18.2891 34.2777 20.6206 34.54C23.7156 34.8853 26.9143 34.8853 30.0092 34.54C31.1522 34.4142 32.2189 33.9051 33.0356 33.0956C33.8522 32.286 34.3705 31.2238 34.5062 30.0819C34.8775 26.9143 34.8775 23.7156 34.5062 20.5479C34.3705 19.4061 33.8522 18.3439 33.0356 17.5343C32.2189 16.7248 31.1522 16.2156 30.0092 16.0899Z" fill="url(#paint1_linear_38_951)"/>
<defs>
<linearGradient id="paint0_linear_38_951" x1="25.3149" y1="19.7275" x2="25.3149" y2="30.9027" gradientUnits="userSpaceOnUse">
<stop stop-color="#F2F2F2"/>
<stop offset="1" stop-color="#444444"/>
</linearGradient>
<linearGradient id="paint1_linear_38_951" x1="25.3149" y1="0" x2="25.3149" y2="50.6299" gradientUnits="userSpaceOnUse">
<stop stop-color="#F2F2F2"/>
<stop offset="1" stop-color="#444444"/>
</linearGradient>
</defs>
</svg>
