<svg width="1445" height="595" viewBox="0 0 1445 595" fill="none" xmlns="http://www.w3.org/2000/svg">
<rect x="706" y="224" width="2" height="371" fill="#1D1D1D"/>
<rect x="762" y="224" width="2" height="371" fill="#1D1D1D"/>
<rect x="678" y="224" width="2" height="371" fill="#1D1D1D"/>
<rect x="734" y="224" width="2" height="371" fill="#1D1D1D"/>
<path d="M1 409L311.399 409C326.037 409 340.246 404.059 351.725 394.978L592.692 204.363C598.72 199.594 606.182 197 613.868 197H647C647.552 197 648 196.552 648 196C648 195.448 647.552 195 647 195H613.868C606.182 195 598.72 197.594 592.692 202.363L351.725 392.978C340.246 402.059 326.037 407 311.399 407H1C0.447693 407 0 407.448 0 408C0 408.552 0.447693 409 1 409Z" fill="#1D1D1D"/>
<path d="M1444 409L1133.6 409C1118.96 409 1104.75 404.059 1093.27 394.978L852.308 204.363C846.28 199.594 838.818 197 831.132 197H798C797.448 197 797 196.552 797 196C797 195.448 797.448 195 798 195H831.132C838.818 195 846.28 197.594 852.308 202.363L1093.27 392.978C1104.75 402.059 1118.96 407 1133.6 407H1444C1444.55 407 1445 407.448 1445 408C1445 408.552 1444.55 409 1444 409Z" fill="#1D1D1D"/>
<path d="M797 112C797 111.448 797.448 111 798 111H995.619C1007.95 111 1020.03 107.492 1030.44 100.885L1107.57 51.9466C1117.82 45.4455 1129.68 41.9425 1141.82 41.8339L1233.99 41.009C1234.55 41.0041 1235 41.4532 1235 42.0089C1235 42.5577 1234.56 43.004 1234.01 43.0089L1141.82 43.8339C1129.68 43.9425 1117.82 47.4455 1107.57 53.9466L1030.44 102.885C1020.03 109.492 1007.95 113 995.619 113H798C797.448 113 797 112.552 797 112Z" fill="#1D1D1D"/>
<path d="M648 112C648 111.448 647.552 111 647 111H449.381C437.048 111 424.971 107.492 414.557 100.885L337.427 51.9466C327.18 45.4455 315.319 41.9425 303.185 41.8339L211.009 41.009C210.453 41.0041 210 41.4532 210 42.0089C210 42.5577 210.442 43.004 210.991 43.0089L303.185 43.8339C315.319 43.9425 327.18 47.4455 337.427 53.9466L414.557 102.885C424.971 109.492 437.048 113 449.381 113H647C647.552 113 648 112.552 648 112Z" fill="#1D1D1D"/>
<path d="M267 346L317.464 346C328.217 346 338.7 342.632 347.441 336.368L567.757 178.49C576.369 172.319 586.698 169 597.293 169H647C647.552 169 648 168.552 648 168C648 167.448 647.552 167 647 167H597.293C586.698 167 576.369 170.319 567.757 176.49L347.441 334.368C338.7 340.632 328.217 344 317.464 344H267C266.448 344 266 344.448 266 345C266 345.552 266.448 346 267 346Z" fill="#1D1D1D"/>
<path d="M1178 346L1127.54 346C1116.78 346 1106.3 342.632 1097.56 336.368L877.243 178.49C868.631 172.319 858.302 169 847.707 169H798C797.448 169 797 168.552 797 168C797 167.448 797.448 167 798 167H847.707C858.302 167 868.631 170.319 877.243 176.49L1097.56 334.368C1106.3 340.632 1116.78 344 1127.54 344H1178C1178.55 344 1179 344.448 1179 345C1179 345.552 1178.55 346 1178 346Z" fill="#1D1D1D"/>
<path d="M396.5 210C396.5 209.448 396.948 209 397.5 209H420.522C425.08 209 429.544 207.703 433.392 205.262L520.573 149.947C530.82 143.446 542.681 139.942 554.815 139.834L646.991 139.009C647.547 139.004 648 139.453 648 140.009C648 140.558 647.558 141.004 647.009 141.009L554.815 141.834C542.681 141.942 530.82 145.446 520.573 151.947L433.392 207.262C429.544 209.703 425.08 211 420.522 211H397.5C396.948 211 396.5 210.552 396.5 210Z" fill="#1D1D1D"/>
<path d="M1048.5 210C1048.5 209.448 1048.05 209 1047.5 209H1024.48C1019.92 209 1015.46 207.703 1011.61 205.262L924.427 149.947C914.18 143.446 902.319 139.942 890.185 139.834L798.009 139.009C797.453 139.004 797 139.453 797 140.009C797 140.558 797.442 141.004 797.991 141.009L890.185 141.834C902.319 141.942 914.18 145.446 924.427 151.947L1011.61 207.262C1015.46 209.703 1019.92 211 1024.48 211H1047.5C1048.05 211 1048.5 210.552 1048.5 210Z" fill="#1D1D1D"/>
<rect x="768.932" y="218.191" width="16.8085" height="11.2057" rx="1.86761" transform="rotate(90 768.932 218.191)" fill="#252525"/>
<rect x="740.917" y="218.191" width="16.8085" height="11.2057" rx="1.86761" transform="rotate(90 740.917 218.191)" fill="#252525"/>
<rect x="712.903" y="218.191" width="16.8085" height="11.2057" rx="1.86761" transform="rotate(90 712.903 218.191)" fill="#252525"/>
<rect x="684.889" y="218.191" width="16.8085" height="11.2057" rx="1.86761" transform="rotate(90 684.889 218.191)" fill="#252525"/>
<rect x="641" y="106.135" width="16.8085" height="11.2057" rx="1.86761" fill="#252525"/>
<rect x="641" y="134.149" width="16.8085" height="11.2057" rx="1.86761" fill="#252525"/>
<rect x="641" y="162.164" width="16.8085" height="11.2057" rx="1.86761" fill="#252525"/>
<rect x="641" y="190.178" width="16.8085" height="11.2057" rx="1.86761" fill="#252525"/>
<rect x="785.742" y="106.135" width="16.8085" height="11.2057" rx="1.86761" fill="#252525"/>
<rect x="785.742" y="134.149" width="16.8085" height="11.2057" rx="1.86761" fill="#252525"/>
<rect x="785.742" y="162.164" width="16.8085" height="11.2057" rx="1.86761" fill="#252525"/>
<rect x="785.742" y="190.178" width="16.8085" height="11.2057" rx="1.86761" fill="#252525"/>
<rect x="654" y="86" width="136.919" height="136.919" rx="24.8944" fill="url(#paint0_linear_781_1513)"/>
<rect x="658" y="90.0012" width="128.917" height="128.917" rx="20.8935" fill="#181818" stroke="url(#paint1_linear_781_1513)" stroke-width="0.889085"/>
<path opacity="0.8" d="M721.968 168.513H705.196L702.508 176.451H691.049L707.309 131.513H719.984L736.243 176.451H724.657L721.968 168.513ZM719.151 160.063L713.582 143.611L708.077 160.063H719.151ZM752.138 131.513V176.451H741.192V131.513H752.138Z" fill="url(#paint2_linear_781_1513)"/>
<rect x="1221" y="37" width="16.8085" height="11.2057" rx="1.86761" fill="#252525"/>
<rect x="1235" width="86" height="86" rx="15.6364" fill="url(#paint3_linear_781_1513)"/>
<rect x="1237.51" y="2.51311" width="80.974" height="80.974" rx="13.1234" fill="#181818" stroke="url(#paint4_linear_781_1513)" stroke-width="0.558442"/>
<path d="M1274.07 37.9612C1276.88 37.6496 1279.79 37.6496 1282.6 37.9612C1282.87 37.9908 1283.12 38.1091 1283.31 38.2974C1283.5 38.4856 1283.63 38.7329 1283.66 38.9998C1284 41.8662 1284 44.7638 1283.66 47.6302C1283.63 47.8975 1283.5 48.1451 1283.31 48.3334C1283.12 48.5217 1282.87 48.6398 1282.6 48.6688C1279.77 48.9807 1276.91 48.9807 1274.07 48.6688C1273.81 48.6392 1273.56 48.5209 1273.36 48.3326C1273.17 48.1444 1273.05 47.8971 1273.01 47.6302C1272.68 44.7632 1272.68 41.8668 1273.01 38.9998C1273.05 38.7325 1273.17 38.4849 1273.37 38.2966C1273.56 38.1083 1273.81 37.9902 1274.08 37.9612" fill="url(#paint5_linear_781_1513)"/>
<path fill-rule="evenodd" clip-rule="evenodd" d="M1286.13 18C1286.64 18 1287.14 18.2052 1287.5 18.5704C1287.87 18.9355 1288.07 19.4308 1288.07 19.9473V27.547C1289.56 27.8415 1290.92 28.5729 1291.99 29.6474C1293.06 30.7219 1293.78 32.0907 1294.07 33.5784H1301.71C1302.22 33.5784 1302.72 33.7836 1303.08 34.1488C1303.45 34.514 1303.65 35.0093 1303.65 35.5257C1303.65 36.0422 1303.45 36.5375 1303.08 36.9027C1302.72 37.2679 1302.22 37.473 1301.71 37.473H1294.47C1294.56 38.7712 1294.63 40.0694 1294.66 41.3676H1299.11C1299.63 41.3676 1300.12 41.5728 1300.49 41.938C1300.85 42.3032 1301.06 42.7985 1301.06 43.3149C1301.06 43.8314 1300.85 44.3267 1300.49 44.6919C1300.12 45.0571 1299.63 45.2622 1299.11 45.2622H1294.66C1294.63 46.5604 1294.56 47.8586 1294.47 49.1569H1301.71C1302.22 49.1569 1302.72 49.362 1303.08 49.7272C1303.45 50.0924 1303.65 50.5877 1303.65 51.1042C1303.65 51.6206 1303.45 52.1159 1303.08 52.4811C1302.72 52.8463 1302.22 53.0515 1301.71 53.0515H1294.07C1293.78 54.5392 1293.06 55.9079 1291.99 56.9825C1290.92 58.057 1289.56 58.7884 1288.07 59.0829V66.6826C1288.07 67.199 1287.87 67.6943 1287.5 68.0595C1287.14 68.4247 1286.64 68.6299 1286.13 68.6299C1285.61 68.6299 1285.12 68.4247 1284.75 68.0595C1284.38 67.6943 1284.18 67.199 1284.18 66.6826V59.4802C1282.89 59.5719 1281.59 59.6325 1280.29 59.6619V64.0862C1280.29 64.6026 1280.08 65.0979 1279.71 65.4631C1279.35 65.8283 1278.85 66.0335 1278.34 66.0335C1277.82 66.0335 1277.33 65.8283 1276.96 65.4631C1276.6 65.0979 1276.39 64.6026 1276.39 64.0862V59.6619C1275.09 59.6318 1273.79 59.5712 1272.5 59.4802V66.6826C1272.5 67.199 1272.29 67.6943 1271.93 68.0595C1271.56 68.4247 1271.07 68.6299 1270.55 68.6299C1270.03 68.6299 1269.54 68.4247 1269.17 68.0595C1268.81 67.6943 1268.6 67.199 1268.6 66.6826V59.0829C1267.12 58.7884 1265.75 58.057 1264.68 56.9825C1263.62 55.9079 1262.89 54.5392 1262.61 53.0515H1254.97C1254.45 53.0515 1253.96 52.8463 1253.59 52.4811C1253.23 52.1159 1253.02 51.6206 1253.02 51.1042C1253.02 50.5877 1253.23 50.0924 1253.59 49.7272C1253.96 49.362 1254.45 49.1569 1254.97 49.1569H1262.21C1262.11 47.8586 1262.05 46.5604 1262.02 45.2622H1257.57C1257.05 45.2622 1256.55 45.0571 1256.19 44.6919C1255.82 44.3267 1255.62 43.8314 1255.62 43.3149C1255.62 42.7985 1255.82 42.3032 1256.19 41.938C1256.55 41.5728 1257.05 41.3676 1257.57 41.3676H1262.02C1262.05 40.0694 1262.11 38.7712 1262.21 37.473H1254.97C1254.45 37.473 1253.96 37.2679 1253.59 36.9027C1253.23 36.5375 1253.02 36.0422 1253.02 35.5257C1253.02 35.0093 1253.23 34.514 1253.59 34.1488C1253.96 33.7836 1254.45 33.5784 1254.97 33.5784H1262.61C1262.89 32.0907 1263.62 30.7219 1264.68 29.6474C1265.75 28.5729 1267.12 27.8415 1268.6 27.547V19.9473C1268.6 19.4308 1268.81 18.9355 1269.17 18.5704C1269.54 18.2052 1270.03 18 1270.55 18C1271.07 18 1271.56 18.2052 1271.93 18.5704C1272.29 18.9355 1272.5 19.4308 1272.5 19.9473V27.1497C1273.79 27.058 1275.09 26.9974 1276.39 26.968V22.5437C1276.39 22.0273 1276.6 21.5319 1276.96 21.1668C1277.33 20.8016 1277.82 20.5964 1278.34 20.5964C1278.85 20.5964 1279.35 20.8016 1279.71 21.1668C1280.08 21.5319 1280.29 22.0273 1280.29 22.5437V26.968C1281.59 26.9974 1282.89 27.058 1284.18 27.1497V19.9473C1284.18 19.4308 1284.38 18.9355 1284.75 18.5704C1285.12 18.2052 1285.61 18 1286.13 18ZM1283.03 34.0899C1279.91 33.7438 1276.76 33.7438 1273.64 34.0899C1271.31 34.3496 1269.42 36.1878 1269.15 38.5479C1268.78 41.7151 1268.78 44.9147 1269.15 48.0819C1269.42 50.4447 1271.31 52.2777 1273.64 52.54C1276.74 52.8853 1279.94 52.8853 1283.03 52.54C1284.18 52.4142 1285.24 51.9051 1286.06 51.0956C1286.88 50.286 1287.39 49.2238 1287.53 48.0819C1287.9 44.9143 1287.9 41.7156 1287.53 38.5479C1287.39 37.4061 1286.88 36.3439 1286.06 35.5343C1285.24 34.7248 1284.18 34.2156 1283.03 34.0899Z" fill="url(#paint6_linear_781_1513)"/>
<rect x="206" y="37" width="16.8085" height="11.2057" rx="1.86761" fill="#252525"/>
<rect x="122" width="86" height="86" rx="15.6364" fill="url(#paint7_linear_781_1513)"/>
<rect x="124.513" y="2.51311" width="80.974" height="80.974" rx="13.1234" fill="#181818" stroke="url(#paint8_linear_781_1513)" stroke-width="0.558442"/>
<path d="M179.7 39.08C179.028 35.6754 177.195 32.6097 174.514 30.4065C171.833 28.2033 168.47 26.9992 165 27C159.22 27 154.2 30.28 151.7 35.08C148.76 35.3977 146.042 36.7904 144.067 38.9906C142.092 41.1909 141 44.0434 141 47C141 53.62 146.38 59 153 59H179C184.52 59 189 54.52 189 49C189 43.72 184.9 39.44 179.7 39.08Z" fill="url(#paint9_linear_781_1513)"/>
<rect x="264" y="340" width="16.8085" height="11.2057" rx="1.86761" fill="#252525"/>
<rect x="180" y="303" width="86" height="86" rx="15.6364" fill="url(#paint10_linear_781_1513)"/>
<rect x="182.513" y="305.513" width="80.974" height="80.974" rx="13.1234" fill="#181818" stroke="url(#paint11_linear_781_1513)" stroke-width="0.558442"/>
<path d="M212.705 366.87C211.641 366.87 210.731 366.497 209.975 365.749C209.218 365.002 208.839 364.103 208.838 363.052V328.688C208.838 327.638 209.217 326.74 209.975 325.993C210.733 325.246 211.643 324.871 212.705 324.87H232.038C233.101 324.87 234.012 325.244 234.77 325.993C235.528 326.741 235.906 327.64 235.905 328.688V334.606C236.485 334.829 236.952 335.179 237.306 335.656C237.661 336.134 237.838 336.675 237.838 337.279V341.097C237.838 341.702 237.661 342.243 237.306 342.72C236.952 343.197 236.485 343.547 235.905 343.77V363.052C235.905 364.102 235.526 365.001 234.77 365.749C234.013 366.498 233.103 366.871 232.038 366.87H212.705ZM223.75 333.868C224.12 333.5 224.305 333.046 224.305 332.506C224.305 331.967 224.119 331.514 223.748 331.147C223.377 330.781 222.918 330.597 222.371 330.597C221.825 330.597 221.366 330.781 220.995 331.147C220.623 331.514 220.438 331.967 220.438 332.506C220.438 333.046 220.623 333.5 220.995 333.868C221.366 334.235 221.825 334.418 222.371 334.416C222.918 334.413 223.377 334.232 223.75 333.868Z" fill="url(#paint12_linear_781_1513)"/>
<rect x="393.768" y="205.535" width="12.5087" height="8.3391" rx="1.86761" fill="#252525"/>
<rect x="332" y="178" width="64" height="64" rx="15.6364" fill="url(#paint13_linear_781_1513)"/>
<rect x="333.942" y="179.941" width="60.1169" height="60.1169" rx="13.1234" fill="#181818" stroke="url(#paint14_linear_781_1513)" stroke-width="0.558442"/>
<path d="M362.773 196.508C365.01 196.508 367.203 197.137 369.099 198.325C370.995 199.513 372.519 201.21 373.496 203.224C374.472 205.237 374.863 207.484 374.622 209.709C374.38 211.933 373.518 214.045 372.133 215.802L377.253 220.922C377.508 221.187 377.65 221.541 377.647 221.909C377.643 222.276 377.496 222.628 377.236 222.888C376.976 223.148 376.624 223.295 376.257 223.298C375.889 223.302 375.535 223.16 375.271 222.905L370.15 217.785C368.658 218.961 366.905 219.763 365.04 220.125C363.174 220.486 361.249 220.396 359.425 219.862C357.601 219.328 355.932 218.366 354.555 217.055C353.179 215.745 352.136 214.124 351.514 212.329C350.891 210.534 350.707 208.615 350.977 206.734C351.246 204.853 351.962 203.064 353.064 201.515C354.165 199.967 355.621 198.705 357.31 197.834C358.999 196.963 360.872 196.508 362.773 196.508ZM362.773 199.312C360.355 199.312 358.037 200.272 356.328 201.981C354.619 203.69 353.659 206.008 353.659 208.425C353.659 210.842 354.619 213.16 356.328 214.869C358.037 216.578 360.355 217.538 362.773 217.538C365.19 217.538 367.508 216.578 369.217 214.869C370.926 213.16 371.886 210.842 371.886 208.425C371.886 206.008 370.926 203.69 369.217 201.981C367.508 200.272 365.19 199.312 362.773 199.312ZM362.773 200.714C364.818 200.714 366.779 201.526 368.225 202.972C369.671 204.418 370.484 206.38 370.484 208.425C370.484 210.47 369.671 212.431 368.225 213.877C366.779 215.324 364.818 216.136 362.773 216.136C360.727 216.136 358.766 215.324 357.32 213.877C355.874 212.431 355.061 210.47 355.061 208.425C355.061 206.38 355.874 204.418 357.32 202.972C358.766 201.526 360.727 200.714 362.773 200.714Z" fill="url(#paint15_linear_781_1513)"/>
<rect x="1038" y="205.535" width="12.5087" height="8.3391" rx="1.86761" fill="#252525"/>
<rect x="1049.16" y="178" width="64" height="64" rx="15.6364" fill="url(#paint16_linear_781_1513)"/>
<rect x="1051.1" y="179.941" width="60.1169" height="60.1169" rx="13.1234" fill="#181818" stroke="url(#paint17_linear_781_1513)" stroke-width="0.558442"/>
<path d="M1097.86 222.562L1094.78 212.613C1094.69 212.304 1094.52 212.024 1094.29 211.797C1094.9 211.104 1095.23 210.214 1095.24 209.291V196.676C1095.23 195.646 1094.82 194.659 1094.09 193.931C1093.36 193.202 1092.38 192.791 1091.35 192.787H1071.45C1070.42 192.791 1069.44 193.202 1068.71 193.931C1067.99 194.66 1067.58 195.647 1067.58 196.676V209.291C1067.58 210.211 1067.91 211.099 1068.51 211.797C1068.29 212.028 1068.12 212.307 1068.02 212.613L1065 222.445C1064.76 222.927 1064.65 223.463 1064.67 224.001C1064.7 224.539 1064.86 225.062 1065.14 225.52C1065.42 225.978 1065.82 226.356 1066.29 226.619C1066.76 226.881 1067.29 227.019 1067.83 227.019H1094.99C1095.52 227.025 1096.05 226.894 1096.52 226.64C1096.98 226.385 1097.38 226.014 1097.67 225.563C1097.95 225.121 1098.12 224.613 1098.15 224.087C1098.19 223.562 1098.08 223.037 1097.86 222.562ZM1086.5 223.232C1086.44 223.326 1086.35 223.403 1086.25 223.456C1086.15 223.509 1086.03 223.537 1085.92 223.538H1076.9C1076.78 223.537 1076.66 223.509 1076.56 223.456C1076.46 223.403 1076.37 223.326 1076.3 223.232C1076.23 223.138 1076.19 223.03 1076.17 222.916C1076.15 222.803 1076.16 222.686 1076.2 222.577L1077.04 219.955C1077.09 219.806 1077.18 219.676 1077.31 219.584C1077.43 219.493 1077.58 219.444 1077.74 219.445H1085.02C1085.17 219.447 1085.32 219.497 1085.44 219.589C1085.56 219.68 1085.66 219.808 1085.7 219.955L1086.57 222.577C1086.62 222.684 1086.63 222.799 1086.62 222.913C1086.61 223.027 1086.57 223.137 1086.5 223.232ZM1070.49 196.676C1070.49 196.42 1070.59 196.174 1070.77 195.991C1070.95 195.809 1071.2 195.704 1071.45 195.701H1091.35C1091.48 195.701 1091.6 195.726 1091.72 195.775C1091.84 195.824 1091.95 195.896 1092.04 195.986C1092.13 196.077 1092.2 196.185 1092.25 196.303C1092.3 196.421 1092.32 196.548 1092.32 196.676V209.291C1092.32 209.42 1092.3 209.547 1092.25 209.665C1092.2 209.783 1092.13 209.891 1092.04 209.982C1091.95 210.072 1091.84 210.144 1091.72 210.193C1091.6 210.242 1091.48 210.267 1091.35 210.267H1071.45C1071.2 210.264 1070.95 210.159 1070.77 209.977C1070.59 209.794 1070.49 209.548 1070.49 209.291V196.676Z" fill="url(#paint18_linear_781_1513)"/>
<rect x="1165" y="340" width="16.8085" height="11.2057" rx="1.86761" fill="#252525"/>
<rect x="1179" y="302" width="86" height="86" rx="15.6364" fill="url(#paint19_linear_781_1513)"/>
<rect x="1181.51" y="304.513" width="80.974" height="80.974" rx="13.1234" fill="#181818" stroke="url(#paint20_linear_781_1513)" stroke-width="0.558442"/>
<path d="M1234.12 325H1218.62L1207.04 336.4L1207 359.2C1207 361.29 1208.74 363 1210.88 363H1234.12C1236.26 363 1238 361.29 1238 359.2V328.8C1238 326.71 1236.26 325 1234.12 325ZM1222.5 336.4H1218.62V328.8H1222.5V336.4ZM1228.31 336.4H1224.44V328.8H1228.31V336.4ZM1234.12 336.4H1230.25V328.8H1234.12V336.4Z" fill="url(#paint21_linear_781_1513)"/>
<defs>
<linearGradient id="paint0_linear_781_1513" x1="656.223" y1="93.1127" x2="790.919" y2="222.919" gradientUnits="userSpaceOnUse">
<stop stop-color="#B6DFFE"/>
<stop offset="1" stop-color="#222222"/>
</linearGradient>
<linearGradient id="paint1_linear_781_1513" x1="663.806" y1="89.5566" x2="787.362" y2="219.363" gradientUnits="userSpaceOnUse">
<stop stop-color="#056DBC"/>
<stop offset="1" stop-color="#023256"/>
</linearGradient>
<linearGradient id="paint2_linear_781_1513" x1="723.51" y1="176.673" x2="723.51" y2="130.895" gradientUnits="userSpaceOnUse">
<stop stop-color="#444444"/>
<stop offset="1" stop-color="#F2F2F2"/>
</linearGradient>
<linearGradient id="paint3_linear_781_1513" x1="1236.4" y1="4.46753" x2="1321" y2="86" gradientUnits="userSpaceOnUse">
<stop stop-color="#888888"/>
<stop offset="1" stop-color="#222222"/>
</linearGradient>
<linearGradient id="paint4_linear_781_1513" x1="1241.16" y1="2.23388" x2="1318.77" y2="83.7664" gradientUnits="userSpaceOnUse">
<stop stop-color="#056DBC"/>
<stop offset="1" stop-color="#023256"/>
</linearGradient>
<linearGradient id="paint5_linear_781_1513" x1="1278.34" y1="37.7275" x2="1278.34" y2="48.9027" gradientUnits="userSpaceOnUse">
<stop stop-color="#F2F2F2"/>
<stop offset="1" stop-color="#444444"/>
</linearGradient>
<linearGradient id="paint6_linear_781_1513" x1="1278.34" y1="18" x2="1278.34" y2="68.6299" gradientUnits="userSpaceOnUse">
<stop stop-color="#F2F2F2"/>
<stop offset="1" stop-color="#444444"/>
</linearGradient>
<linearGradient id="paint7_linear_781_1513" x1="123.396" y1="4.46753" x2="208" y2="86" gradientUnits="userSpaceOnUse">
<stop stop-color="#888888"/>
<stop offset="1" stop-color="#222222"/>
</linearGradient>
<linearGradient id="paint8_linear_781_1513" x1="128.16" y1="2.23388" x2="205.766" y2="83.7664" gradientUnits="userSpaceOnUse">
<stop stop-color="#056DBC"/>
<stop offset="1" stop-color="#023256"/>
</linearGradient>
<linearGradient id="paint9_linear_781_1513" x1="165" y1="27" x2="165" y2="59" gradientUnits="userSpaceOnUse">
<stop stop-color="#F2F2F2"/>
<stop offset="1" stop-color="#444444"/>
</linearGradient>
<linearGradient id="paint10_linear_781_1513" x1="181.396" y1="307.468" x2="266" y2="389" gradientUnits="userSpaceOnUse">
<stop stop-color="#888888"/>
<stop offset="1" stop-color="#222222"/>
</linearGradient>
<linearGradient id="paint11_linear_781_1513" x1="186.16" y1="305.234" x2="263.766" y2="386.766" gradientUnits="userSpaceOnUse">
<stop stop-color="#056DBC"/>
<stop offset="1" stop-color="#023256"/>
</linearGradient>
<linearGradient id="paint12_linear_781_1513" x1="223.338" y1="324.87" x2="223.338" y2="366.87" gradientUnits="userSpaceOnUse">
<stop stop-color="#F2F2F2"/>
<stop offset="1" stop-color="#444444"/>
</linearGradient>
<linearGradient id="paint13_linear_781_1513" x1="333.039" y1="181.325" x2="396" y2="242" gradientUnits="userSpaceOnUse">
<stop stop-color="#888888"/>
<stop offset="1" stop-color="#222222"/>
</linearGradient>
<linearGradient id="paint14_linear_781_1513" x1="336.584" y1="179.662" x2="394.338" y2="240.337" gradientUnits="userSpaceOnUse">
<stop stop-color="#056DBC"/>
<stop offset="1" stop-color="#023256"/>
</linearGradient>
<linearGradient id="paint15_linear_781_1513" x1="364.251" y1="196.508" x2="364.251" y2="223.299" gradientUnits="userSpaceOnUse">
<stop stop-color="#F2F2F2"/>
<stop offset="1" stop-color="#444444"/>
</linearGradient>
<linearGradient id="paint16_linear_781_1513" x1="1050.2" y1="181.325" x2="1113.16" y2="242" gradientUnits="userSpaceOnUse">
<stop stop-color="#888888"/>
<stop offset="1" stop-color="#222222"/>
</linearGradient>
<linearGradient id="paint17_linear_781_1513" x1="1053.75" y1="179.662" x2="1111.5" y2="240.337" gradientUnits="userSpaceOnUse">
<stop stop-color="#056DBC"/>
<stop offset="1" stop-color="#023256"/>
</linearGradient>
<linearGradient id="paint18_linear_781_1513" x1="1081.41" y1="192.787" x2="1081.41" y2="227.02" gradientUnits="userSpaceOnUse">
<stop stop-color="#F2F2F2"/>
<stop offset="1" stop-color="#444444"/>
</linearGradient>
<linearGradient id="paint19_linear_781_1513" x1="1180.4" y1="306.468" x2="1265" y2="388" gradientUnits="userSpaceOnUse">
<stop stop-color="#888888"/>
<stop offset="1" stop-color="#222222"/>
</linearGradient>
<linearGradient id="paint20_linear_781_1513" x1="1185.16" y1="304.234" x2="1262.77" y2="385.766" gradientUnits="userSpaceOnUse">
<stop stop-color="#056DBC"/>
<stop offset="1" stop-color="#023256"/>
</linearGradient>
<linearGradient id="paint21_linear_781_1513" x1="1222.5" y1="325" x2="1222.5" y2="363" gradientUnits="userSpaceOnUse">
<stop stop-color="#F2F2F2"/>
<stop offset="1" stop-color="#444444"/>
</linearGradient>
</defs>
</svg>
