<svg width="45" height="45" viewBox="0 0 45 45" fill="none" xmlns="http://www.w3.org/2000/svg">
<g clip-path="url(#clip0_212_2740)">
<path d="M37.9688 29.6191H30.9375C28.6597 29.6191 26.8066 31.4722 26.8066 33.75V34.9564C18.2464 33.5105 11.4895 26.7536 10.0436 18.1934H11.25C13.5278 18.1934 15.3809 16.3403 15.3809 14.0625V7.03125C15.3809 4.75348 13.5278 2.90039 11.25 2.90039H6.24023C2.7994 2.90039 0 5.6998 0 9.14062V14.7656C0 18.8332 0.797695 22.7818 2.37103 26.5014C5.52111 33.9491 11.1114 39.5045 18.4985 42.629C22.2182 44.2023 26.1667 45 30.2344 45H35.8594C39.3002 45 42.0996 42.2006 42.0996 38.7598V33.75C42.0996 31.4722 40.2465 29.6191 37.9688 29.6191ZM39.4629 38.7598C39.4629 40.7467 37.8463 42.3633 35.8594 42.3633H30.2344C22.5013 42.3633 15.484 39.0956 10.6942 34.3059C5.89614 29.5079 2.63672 22.488 2.63672 14.7656V9.14062C2.63672 7.15368 4.25329 5.53711 6.24023 5.53711H11.25C12.0739 5.53711 12.7441 6.20736 12.7441 7.03125V14.0625C12.7441 14.8864 12.0739 15.5566 11.25 15.5566H8.53989C7.7632 15.5566 7.1528 16.2264 7.2276 17.0016C8.28668 27.978 17.022 36.7134 27.9984 37.7724C28.7692 37.8483 29.4434 37.2399 29.4434 36.4601V33.75C29.4434 32.9261 30.1136 32.2559 30.9375 32.2559H37.9688C38.7926 32.2559 39.4629 32.9261 39.4629 33.75V38.7598Z" fill="#F2F2F2"/>
<path d="M40.8691 0H23.9941C21.7164 0 19.8633 1.85309 19.8633 4.13086V16.084C19.8633 18.3618 21.7164 20.2148 23.9941 20.2148H29.0731L31.4995 22.6412C32.0143 23.156 32.849 23.156 33.3639 22.6412L35.7902 20.2148H40.8691C43.1469 20.2148 45 18.3618 45 16.084V4.13086C45 1.85309 43.1469 0 40.8691 0ZM42.3633 16.084C42.3633 16.9079 41.693 17.5781 40.8691 17.5781H35.2441C34.8945 17.5781 34.5592 17.717 34.312 17.9643L32.4316 19.8446L30.5513 17.9642C30.3041 17.717 29.9688 17.5781 29.6191 17.5781H23.9941C23.1703 17.5781 22.5 16.9079 22.5 16.084V4.13086C22.5 3.30697 23.1703 2.63672 23.9941 2.63672H40.8691C41.693 2.63672 42.3633 3.30697 42.3633 4.13086V16.084Z" fill="#F2F2F2"/>
<path d="M27.5098 13.8867C28.2379 13.8867 28.8281 13.2965 28.8281 12.5684C28.8281 11.8402 28.2379 11.25 27.5098 11.25C26.7817 11.25 26.1914 11.8402 26.1914 12.5684C26.1914 13.2965 26.7817 13.8867 27.5098 13.8867Z" fill="#F2F2F2"/>
<path d="M32.4316 13.8867C33.1598 13.8867 33.75 13.2965 33.75 12.5684C33.75 11.8402 33.1598 11.25 32.4316 11.25C31.7035 11.25 31.1133 11.8402 31.1133 12.5684C31.1133 13.2965 31.7035 13.8867 32.4316 13.8867Z" fill="#F2F2F2"/>
<path d="M37.3535 13.8867C38.0816 13.8867 38.6719 13.2965 38.6719 12.5684C38.6719 11.8402 38.0816 11.25 37.3535 11.25C36.6254 11.25 36.0352 11.8402 36.0352 12.5684C36.0352 13.2965 36.6254 13.8867 37.3535 13.8867Z" fill="#F2F2F2"/>
</g>
<defs>
<clipPath id="clip0_212_2740">
<rect width="45" height="45" fill="white"/>
</clipPath>
</defs>
</svg>
