<svg width="22" height="22" viewBox="0 0 22 22" fill="none" xmlns="http://www.w3.org/2000/svg">
<path d="M5.94484 2.11018C5.97674 2.02451 6.03409 1.95063 6.10917 1.89847C6.18426 1.84631 6.2735 1.81836 6.36492 1.81836C6.45635 1.81836 6.54559 1.84631 6.62068 1.89847C6.69576 1.95063 6.7531 2.02451 6.78501 2.11018L7.43242 3.85782C7.52335 4.10333 7.71612 4.297 7.96162 4.38793L9.70926 5.03352C9.79524 5.06526 9.86942 5.12258 9.92182 5.19778C9.97422 5.27297 10.0023 5.36241 10.0023 5.45406C10.0023 5.54571 9.97422 5.63516 9.92182 5.71035C9.86942 5.78554 9.79524 5.84287 9.70926 5.87461L7.96162 6.52201C7.84091 6.56762 7.73129 6.6384 7.64005 6.72964C7.54881 6.82089 7.47803 6.93051 7.43242 7.05122L6.78501 8.79885C6.7531 8.88453 6.69576 8.9584 6.62068 9.01056C6.54559 9.06272 6.45635 9.09068 6.36492 9.09068C6.2735 9.09068 6.18426 9.06272 6.10917 9.01056C6.03409 8.9584 5.97674 8.88453 5.94484 8.79885L5.29834 7.05122C5.25274 6.93025 5.18187 6.8204 5.09046 6.72898C4.99905 6.63757 4.88919 6.5667 4.76823 6.5211L3.02059 5.87552C2.93461 5.84378 2.86042 5.78645 2.80803 5.71126C2.75563 5.63607 2.72754 5.54662 2.72754 5.45497C2.72754 5.36332 2.75563 5.27388 2.80803 5.19869C2.86042 5.12349 2.93461 5.06617 3.02059 5.03443L4.76823 4.38793C5.01373 4.297 5.20741 4.10333 5.29834 3.85782L5.94484 2.11018Z" stroke="#F2F2F2" stroke-width="1.02294"/>
<path d="M13.0972 8.76602L14.4456 10.1145M5.45557 20.0038H6.81767C7.91972 20.0038 8.47074 20.0038 8.9663 19.7983C9.46186 19.5928 9.85194 19.2037 10.6312 18.4235L18.0418 11.0138C18.5319 10.5237 18.7765 10.2791 18.9075 10.0136C19.0301 9.76546 19.0939 9.49242 19.0939 9.21566C19.0939 8.9389 19.0301 8.66586 18.9075 8.41777C18.7765 8.15317 18.5319 7.90857 18.0418 7.41756C17.5508 6.92745 17.3062 6.68286 17.0416 6.55192C16.7934 6.42912 16.5202 6.36523 16.2433 6.36523C15.9663 6.36523 15.6931 6.42912 15.4449 6.55192C15.1812 6.68286 14.9357 6.92745 14.4447 7.41756L7.03499 14.8282C6.25573 15.6074 5.86656 15.9975 5.66106 16.4922C5.45557 16.9896 5.45557 17.5397 5.45557 18.6426V20.0038Z" stroke="#F2F2F2" stroke-width="1.02294" stroke-linecap="round" stroke-linejoin="round"/>
</svg>
