<svg width="27" height="27" viewBox="0 0 27 27" fill="none" xmlns="http://www.w3.org/2000/svg">
<path d="M11.9166 2.68748e-08C14.1542 -0.000150217 16.3467 0.629654 18.2431 1.81734C20.1395 3.00502 21.6632 4.70259 22.6399 6.71578C23.6165 8.72897 24.0066 10.9764 23.7656 13.201C23.5245 15.4255 22.662 17.5373 21.2768 19.2945L26.3971 24.4147C26.6525 24.6791 26.7938 25.0333 26.7906 25.4009C26.7874 25.7685 26.64 26.1201 26.38 26.3801C26.1201 26.64 25.7684 26.7874 25.4008 26.7906C25.0332 26.7938 24.679 26.6525 24.4146 26.3971L19.2942 21.277C17.8017 22.4532 16.0494 23.2555 14.1837 23.6168C12.318 23.9782 10.393 23.8881 8.56915 23.3542C6.74532 22.8203 5.07563 21.858 3.69938 20.5475C2.32312 19.2371 1.28021 17.6166 0.657647 15.8212C0.0350886 14.0257 -0.149063 12.1074 0.120557 10.2264C0.390177 8.34528 1.10575 6.55595 2.20757 5.00765C3.3094 3.45936 4.76553 2.19699 6.45447 1.32588C8.14341 0.454764 10.0162 0.000161921 11.9166 2.68748e-08ZM11.9166 2.80403C9.49953 2.80403 7.18149 3.76416 5.47239 5.47319C3.76329 7.18223 2.80312 9.50018 2.80312 11.9171C2.80312 14.3341 3.76329 16.652 5.47239 18.3611C7.18149 20.0701 9.49953 21.0302 11.9166 21.0302C14.3336 21.0302 16.6516 20.0701 18.3607 18.3611C20.0698 16.652 21.03 14.3341 21.03 11.9171C21.03 9.50018 20.0698 7.18223 18.3607 5.47319C16.6516 3.76416 14.3336 2.80403 11.9166 2.80403ZM11.9166 4.20604C13.9617 4.20604 15.9232 5.01846 17.3693 6.46457C18.8155 7.91068 19.6279 9.87202 19.6279 11.9171C19.6279 13.9622 18.8155 15.9236 17.3693 17.3697C15.9232 18.8158 13.9617 19.6282 11.9166 19.6282C9.87138 19.6282 7.90996 18.8158 6.4638 17.3697C5.01764 15.9236 4.20519 13.9622 4.20519 11.9171C4.20519 9.87202 5.01764 7.91068 6.4638 6.46457C7.90996 5.01846 9.87138 4.20604 11.9166 4.20604Z" fill="url(#paint0_linear_38_991)"/>
<defs>
<linearGradient id="paint0_linear_38_991" x1="13.3953" y1="0" x2="13.3953" y2="26.7907" gradientUnits="userSpaceOnUse">
<stop stop-color="#F2F2F2"/>
<stop offset="1" stop-color="#444444"/>
</linearGradient>
</defs>
</svg>
