<svg width="29" height="42" viewBox="0 0 29 42" fill="none" xmlns="http://www.w3.org/2000/svg">
<path d="M3.86667 42C2.80333 42 1.89338 41.6264 1.1368 40.8794C0.380222 40.1323 0.00128889 39.2331 0 38.1818V3.81818C0 2.76818 0.378933 1.86964 1.1368 1.12255C1.89467 0.375455 2.80462 0.00127273 3.86667 0H23.2C24.2633 0 25.1739 0.374182 25.9318 1.12255C26.6897 1.87091 27.068 2.76945 27.0667 3.81818V9.73636C27.6467 9.95909 28.1139 10.3091 28.4683 10.7864C28.8228 11.2636 29 11.8045 29 12.4091V16.2273C29 16.8318 28.8228 17.3727 28.4683 17.85C28.1139 18.3273 27.6467 18.6773 27.0667 18.9V38.1818C27.0667 39.2318 26.6884 40.131 25.9318 40.8794C25.1752 41.6277 24.2646 42.0013 23.2 42H3.86667ZM14.9118 8.99754C15.2817 8.62973 15.4667 8.176 15.4667 7.63636C15.4667 7.09673 15.2811 6.64364 14.9099 6.27709C14.5387 5.91055 14.0798 5.72727 13.5333 5.72727C12.9868 5.72727 12.528 5.91055 12.1568 6.27709C11.7856 6.64364 11.6 7.09673 11.6 7.63636C11.6 8.176 11.7856 8.62973 12.1568 8.99754C12.528 9.36536 12.9868 9.548 13.5333 9.54545C14.0798 9.54291 14.5393 9.36154 14.9118 8.99754Z" fill="url(#paint0_linear_38_981)"/>
<defs>
<linearGradient id="paint0_linear_38_981" x1="14.5" y1="0" x2="14.5" y2="42" gradientUnits="userSpaceOnUse">
<stop stop-color="#F2F2F2"/>
<stop offset="1" stop-color="#444444"/>
</linearGradient>
</defs>
</svg>
