<svg width="34" height="35" viewBox="0 0 34 35" fill="none" xmlns="http://www.w3.org/2000/svg">
<path d="M33.1852 29.7749L30.114 19.8256C30.019 19.5169 29.8489 19.2366 29.6191 19.0099C30.2265 18.3165 30.5626 17.4265 30.5652 16.5044V3.88938C30.5614 2.85903 30.1507 1.87198 29.4227 1.14341C28.6947 0.414843 27.7084 0.00383746 26.6788 0H6.78128C5.75308 0.00385397 4.7683 0.415328 4.04261 1.14431C3.31693 1.87329 2.90947 2.86037 2.90948 3.88938V16.5044C2.91317 17.4237 3.24336 18.3118 3.84104 19.0099C3.61646 19.2408 3.44723 19.5197 3.34615 19.8256L0.33313 29.6583C0.0925534 30.1402 -0.0210159 30.6755 0.00319911 31.2136C0.0274141 31.7516 0.18861 32.2746 0.471491 32.7328C0.754372 33.191 1.14956 33.5693 1.61954 33.8317C2.08953 34.0942 2.61873 34.2321 3.15692 34.2324H30.3177C30.8512 34.2382 31.3773 34.1074 31.8461 33.8524C32.3148 33.5975 32.7107 33.2268 32.996 32.7757C33.2817 32.3336 33.4491 31.8255 33.4823 31.3C33.5154 30.7746 33.4131 30.2494 33.1852 29.7749ZM21.8318 30.445C21.7664 30.539 21.6794 30.6158 21.578 30.6691C21.4767 30.7223 21.364 30.7504 21.2496 30.7509H12.2251C12.1086 30.7503 11.9939 30.7223 11.8902 30.6692C11.7865 30.616 11.6968 30.5392 11.6283 30.445C11.5627 30.3506 11.5195 30.2425 11.5018 30.129C11.4842 30.0154 11.4926 29.8993 11.5264 29.7895L12.3706 27.1674C12.4173 27.0188 12.5104 26.8891 12.6361 26.7974C12.7619 26.7056 12.9137 26.6566 13.0693 26.6576H20.3471C20.5003 26.6597 20.6488 26.7101 20.7716 26.8017C20.8945 26.8932 20.9853 27.0212 21.0312 27.1674L21.9046 29.7895C21.946 29.8965 21.9611 30.012 21.9484 30.1261C21.9357 30.2402 21.8957 30.3496 21.8318 30.445ZM5.82061 3.88938C5.82058 3.63304 5.92132 3.38697 6.10108 3.20435C6.28083 3.02173 6.52516 2.91722 6.78128 2.91339H26.6788C26.8069 2.91339 26.9337 2.93864 27.052 2.98769C27.1704 3.03673 27.2779 3.10862 27.3684 3.19925C27.459 3.28988 27.5308 3.39747 27.5798 3.51589C27.6288 3.6343 27.6541 3.76121 27.6541 3.88938V16.5044C27.6541 16.6325 27.6288 16.7595 27.5798 16.8779C27.5308 16.9963 27.459 17.1039 27.3684 17.1945C27.2779 17.2851 27.1704 17.357 27.052 17.4061C26.9337 17.4551 26.8069 17.4804 26.6788 17.4804H6.78128C6.52516 17.4765 6.28083 17.372 6.10108 17.1894C5.92132 17.0068 5.82058 16.7607 5.82061 16.5044V3.88938Z" fill="url(#paint0_linear_38_997)"/>
<defs>
<linearGradient id="paint0_linear_38_997" x1="16.7442" y1="0" x2="16.7442" y2="34.2326" gradientUnits="userSpaceOnUse">
<stop stop-color="#F2F2F2"/>
<stop offset="1" stop-color="#444444"/>
</linearGradient>
</defs>
</svg>
