<svg width="20" height="20" viewBox="0 0 20 20" fill="none" xmlns="http://www.w3.org/2000/svg">
<mask id="mask0_182_2195" style="mask-type:luminance" maskUnits="userSpaceOnUse" x="0" y="1" width="18" height="17">
<path d="M2.00049 14.0033C2.00049 13.7911 2.08479 13.5875 2.23485 13.4375C2.38491 13.2874 2.58844 13.2031 2.80066 13.2031H16.4035C16.6157 13.2031 16.8192 13.2874 16.9693 13.4375C17.1194 13.5875 17.2037 13.7911 17.2037 14.0033V16.8039H2.00049V14.0033Z" stroke="white" stroke-width="1.28027" stroke-linecap="round" stroke-linejoin="round"/>
<path d="M16.8036 7.20139H13.6029L11.2024 4.80089L13.6029 2.40039H16.8036" stroke="white" stroke-width="1.28027" stroke-linecap="round" stroke-linejoin="round"/>
<path d="M3.20068 6.40184C4.08452 6.40184 4.80101 5.68535 4.80101 4.80151C4.80101 3.91767 4.08452 3.20117 3.20068 3.20117C2.31684 3.20117 1.60034 3.91767 1.60034 4.80151C1.60034 5.68535 2.31684 6.40184 3.20068 6.40184Z" stroke="white" stroke-width="1.28027"/>
<path d="M4.8009 4.80078H11.2022M4.00073 6.40112L7.2014 13.2025" stroke="white" stroke-width="1.28027" stroke-linecap="round" stroke-linejoin="round"/>
</mask>
<g mask="url(#mask0_182_2195)">
<path d="M0 0H19.204V19.204H0V0Z" fill="#F2F2F2"/>
</g>
</svg>
