<svg width="20" height="20" viewBox="0 0 20 20" fill="none" xmlns="http://www.w3.org/2000/svg">
<g clip-path="url(#clip0_182_2186)">
<path fill-rule="evenodd" clip-rule="evenodd" d="M6.20304 0.936697C6.17819 0.711084 6.06488 0.504532 5.88797 0.362333C5.71106 0.220134 5.48498 0.153894 5.2593 0.178138C4.76456 0.232092 4.27578 0.286961 3.79293 0.342744L3.62284 0.36332C2.78914 0.461005 2.01286 0.837369 1.41981 1.43141C0.826762 2.02546 0.451701 2.80237 0.355415 3.63623L0.3513 3.67738C0.290945 4.19772 0.232875 4.7272 0.177092 5.26583C0.153627 5.49211 0.221014 5.71845 0.364429 5.89505C0.507844 6.07165 0.715539 6.18405 0.941823 6.20751C1.16811 6.23098 1.39445 6.16359 1.57105 6.02018C1.74765 5.87676 1.86004 5.66907 1.88351 5.44278C1.93837 4.91421 1.99553 4.38839 2.05497 3.86531L2.05909 3.82827C2.11178 3.37925 2.31425 2.96108 2.63381 2.64127C2.95338 2.32146 3.37139 2.11866 3.82037 2.06562L3.99046 2.04504L5.44311 1.88044C5.66897 1.85592 5.87586 1.74276 6.01835 1.56581C6.16084 1.38886 6.22726 1.16259 6.20304 0.936697ZM13.0026 0.936697C13.0271 0.710835 13.1403 0.503939 13.3173 0.361452C13.4942 0.218965 13.7205 0.15254 13.9464 0.176766C14.4402 0.230721 14.9285 0.285589 15.4114 0.341372L15.5828 0.361948C16.4165 0.459982 17.1926 0.836672 17.7854 1.43097C18.3782 2.02526 18.7529 2.80233 18.8489 3.63623L18.8544 3.67738C18.9138 4.19864 18.9714 4.72812 19.0272 5.26583C19.0452 5.4891 18.9752 5.71056 18.832 5.88283C18.6889 6.05511 18.484 6.16451 18.2612 6.18763C18.0384 6.21075 17.8154 6.14576 17.6399 6.00656C17.4644 5.86735 17.3503 5.665 17.3222 5.44278C17.2673 4.91421 17.2097 4.38839 17.1493 3.86531L17.1452 3.82827C17.0926 3.37945 16.8903 2.96145 16.571 2.64166C16.2517 2.32187 15.834 2.11895 15.3853 2.06562L15.2152 2.04504L13.7612 1.88044C13.5358 1.85525 13.3296 1.74181 13.1877 1.56493C13.0458 1.38806 12.9784 1.16216 13.0026 0.936697ZM9.60215 2.14655C9.08501 2.14655 8.60765 2.29332 8.26198 2.64037C7.91494 2.98604 7.76816 3.4634 7.76816 3.98053C7.76816 4.49767 7.91494 4.97365 8.26198 5.3207C8.40372 5.46153 8.56513 5.57127 8.7462 5.64991V6.56759C7.93414 6.57445 7.10563 6.59914 6.34295 6.69927C5.81453 6.76548 5.32224 7.00264 4.94111 7.3746C4.55999 7.74656 4.31093 8.23293 4.23188 8.75959C4.14684 9.34806 4.14684 9.94338 4.14684 10.8652V10.9379C4.14684 11.861 4.14684 12.4564 4.23188 13.0448C4.31093 13.5715 4.55999 14.0579 4.94111 14.4298C5.32224 14.8018 5.81453 15.0389 6.34295 15.1051C7.37174 15.2382 8.51849 15.2382 9.58431 15.2382H9.62272C10.6885 15.2382 11.8367 15.2382 12.8641 15.1051C13.3923 15.0387 13.8842 14.8014 14.2651 14.4294C14.6459 14.0575 14.8948 13.5713 14.9738 13.0448C15.0602 12.455 15.0602 11.861 15.0602 10.9379V10.8652C15.0602 9.94338 15.0602 9.34806 14.9738 8.75959C14.8948 8.23314 14.6459 7.74692 14.2651 7.37498C13.8842 7.00304 13.3923 6.76576 12.8641 6.69927C12.0663 6.60852 11.2638 6.56455 10.4608 6.56759V5.64854C10.6401 5.57081 10.8006 5.46153 10.9423 5.3207C11.2894 4.97365 11.4361 4.49767 11.4361 3.98053C11.4361 3.4634 11.2894 2.98604 10.9423 2.64037C10.5953 2.29332 10.1193 2.14655 9.60215 2.14655ZM11.3854 9.78015C11.158 9.78015 10.9399 9.87047 10.7792 10.0312C10.6184 10.192 10.5281 10.4101 10.5281 10.6375V11.1683C10.5281 11.3957 10.6184 11.6138 10.7792 11.7745C10.9399 11.9353 11.158 12.0256 11.3854 12.0256C11.6128 12.0256 11.8308 11.9353 11.9916 11.7745C12.1524 11.6138 12.2427 11.3957 12.2427 11.1683V10.6375C12.2427 10.4101 12.1524 10.192 11.9916 10.0312C11.8308 9.87047 11.6128 9.78015 11.3854 9.78015ZM6.96434 10.6375C6.96434 10.4101 7.05466 10.192 7.21544 10.0312C7.37622 9.87047 7.59429 9.78015 7.82166 9.78015C8.04904 9.78015 8.2671 9.87047 8.42788 10.0312C8.58866 10.192 8.67898 10.4101 8.67898 10.6375V11.1683C8.67898 11.3957 8.58866 11.6138 8.42788 11.7745C8.2671 11.9353 8.04904 12.0256 7.82166 12.0256C7.59429 12.0256 7.37622 11.9353 7.21544 11.7745C7.05466 11.6138 6.96434 11.3957 6.96434 11.1683V10.6375ZM13.9464 19.0282C13.7203 19.0524 13.4938 18.9858 13.3168 18.8431C13.1398 18.7003 13.0268 18.4931 13.0026 18.2669C12.9784 18.0408 13.0451 17.8144 13.1878 17.6374C13.3306 17.4604 13.5378 17.3474 13.7639 17.3232L15.2166 17.1586L15.3867 17.138C15.8352 17.0848 16.2527 16.882 16.572 16.5625C16.8913 16.243 17.0937 15.8253 17.1466 15.3767L17.1507 15.3383C17.2101 14.8162 17.2677 14.2903 17.3235 13.7609C17.3327 13.647 17.3646 13.5361 17.4172 13.4348C17.4699 13.3334 17.5423 13.2436 17.6301 13.1706C17.718 13.0976 17.8195 13.0428 17.9288 13.0096C18.0381 12.9764 18.1529 12.9654 18.2666 12.9772C18.3802 12.989 18.4903 13.0234 18.5904 13.0783C18.6906 13.1332 18.7787 13.2076 18.8497 13.2971C18.9207 13.3866 18.9731 13.4894 19.0038 13.5994C19.0345 13.7094 19.0429 13.8245 19.0286 13.9378C18.9719 14.4746 18.9143 15.0046 18.8557 15.5276L18.8503 15.5674C18.7543 16.4013 18.3796 17.1784 17.7868 17.7727C17.194 18.367 16.4179 18.7437 15.5842 18.8417L15.4141 18.8609C14.9313 18.9185 14.442 18.9743 13.9464 19.0282ZM5.26067 19.0282C5.48677 19.0526 5.7133 18.9862 5.89041 18.8435C6.06752 18.7009 6.18072 18.4937 6.20509 18.2676C6.22947 18.0415 6.16303 17.815 6.02038 17.6379C5.87774 17.4608 5.67058 17.3476 5.44448 17.3232L3.99183 17.1586L3.82174 17.138C3.37247 17.0856 2.95399 16.8833 2.6339 16.5637C2.31382 16.2441 2.11082 15.8259 2.05771 15.3767L2.0536 15.3383C1.99416 14.8162 1.937 14.2903 1.88213 13.7609C1.85867 13.5346 1.74627 13.3269 1.56967 13.1835C1.39307 13.0401 1.16674 12.9727 0.940452 12.9961C0.714167 13.0196 0.506472 13.132 0.363057 13.3086C0.219642 13.4852 0.152255 13.7115 0.17572 13.9378C0.231504 14.4746 0.289573 15.0046 0.349928 15.5276L0.354043 15.5674C0.45004 16.4015 0.824974 17.1787 1.41805 17.7731C2.01112 18.3674 2.78756 18.744 3.62147 18.8417L3.79156 18.8609C4.27349 18.9185 4.76228 18.9738 5.25793 19.0269" fill="#F2F2F2"/>
</g>
<defs>
<clipPath id="clip0_182_2186">
<rect width="19.204" height="19.204" fill="white"/>
</clipPath>
</defs>
</svg>
