<svg width="149" height="60" viewBox="0 0 149 60" fill="none" xmlns="http://www.w3.org/2000/svg">
<path d="M29.1836 48.5788C27.0255 49.0971 24.7725 49.072 22.6264 48.5058C20.4803 47.9396 18.5082 46.85 16.8865 45.3346C15.2649 43.8192 14.0444 41.9253 13.3343 39.8224C12.6243 37.7196 12.4468 35.4734 12.8178 33.2852C12.7623 33.3406 12.7026 33.3918 12.6394 33.4383C12.1973 33.7746 11.6447 33.8994 10.5394 34.1488L9.53679 34.3762C5.65258 35.2557 3.71047 35.6946 3.24784 37.1804C2.78679 38.6646 4.10995 40.2136 6.75784 43.3099L7.44311 44.1104C8.19468 44.9899 8.57205 45.4304 8.741 45.9736C8.90995 46.5183 8.85311 47.1057 8.73942 48.2788L8.63521 49.3478C8.23574 53.4799 8.03521 55.5452 9.24468 56.4625C10.4542 57.3799 12.2731 56.5446 15.9078 54.8694L16.8505 54.4367C17.8831 53.9599 18.3994 53.7231 18.9473 53.7231C19.4952 53.7231 20.0115 53.9599 21.0457 54.4367L21.9852 54.8694C25.6215 56.5431 27.4405 57.3799 28.6484 56.4641C29.8594 55.5452 29.6589 53.4799 29.2594 49.3478L29.1836 48.5788Z" fill="url(#paint0_linear_182_2238)"/>
<path opacity="0.5" d="M14.452 30.6447L13.9341 31.5731C13.3657 32.5931 13.0815 33.1031 12.6394 33.4395C12.7026 33.3921 12.762 33.341 12.8178 33.2863C12.4467 35.4747 12.6242 37.7211 13.3343 39.8241C14.0444 41.9271 15.2651 43.8211 16.8869 45.3366C18.5088 46.852 20.4812 47.9416 22.6275 48.5076C24.7738 49.0737 27.0269 49.0985 29.1852 48.58L29.1536 48.28C29.0415 47.1068 28.9847 46.5195 29.1536 45.9747C29.3226 45.4316 29.6984 44.991 30.4515 44.1116L31.1368 43.311C33.7847 40.2163 35.1078 38.6674 34.6452 37.1816C34.1841 35.6958 32.242 35.2552 28.3578 34.3774L27.3536 34.15C26.2499 33.9005 25.6973 33.7758 25.2536 33.4395C24.8115 33.1031 24.5273 32.5931 23.9589 31.5731L23.4426 30.6447C21.442 27.0574 20.4426 25.2637 18.9473 25.2637C17.452 25.2637 16.4526 27.0574 14.452 30.6447Z" fill="url(#paint1_linear_182_2238)"/>
<path d="M90.4181 41.9181C87.001 42.7386 83.4337 42.6989 80.0358 41.8024C76.6378 40.906 73.5153 39.1808 70.9477 36.7814C68.3801 34.382 66.4476 31.3833 65.3233 28.0538C64.1991 24.7243 63.9181 21.1679 64.5056 17.7031C64.4175 17.7909 64.3231 17.8719 64.2231 17.9456C63.5231 18.4781 62.6481 18.6756 60.8981 19.0706L59.3105 19.4306C53.1605 20.8231 50.0855 21.5181 49.353 23.8706C48.623 26.2206 50.718 28.6731 54.9105 33.5756L55.9955 34.8431C57.1856 36.2356 57.783 36.9331 58.0505 37.7931C58.318 38.6556 58.228 39.5856 58.048 41.4431L57.883 43.1356C57.2505 49.6781 56.933 52.9481 58.848 54.4006C60.7631 55.8531 63.643 54.5306 69.398 51.8781L70.8905 51.1931C72.5255 50.4381 73.3431 50.0631 74.2106 50.0631C75.0781 50.0631 75.8956 50.4381 77.5331 51.1931L79.0205 51.8781C84.778 54.5281 87.6581 55.8531 89.5705 54.4031C91.488 52.9481 91.1706 49.6781 90.5381 43.1356L90.4181 41.9181Z" fill="url(#paint2_linear_182_2238)"/>
<path opacity="0.5" d="M67.0929 13.52L66.2729 14.99C65.3729 16.605 64.9229 17.4125 64.2229 17.945C64.3229 17.87 64.4171 17.7892 64.5054 17.7025C63.9178 21.1675 64.1988 24.7242 65.3232 28.054C66.4476 31.3837 68.3803 34.3826 70.9482 36.7821C73.5161 39.1816 76.6391 40.9067 80.0374 41.8029C83.4357 42.6991 87.0032 42.7385 90.4204 41.9175L90.3704 41.4425C90.1929 39.585 90.1029 38.655 90.3704 37.7925C90.6379 36.9325 91.2329 36.235 92.4254 34.8425L93.5104 33.575C97.7029 28.675 99.7979 26.2225 99.0654 23.87C98.3354 21.5175 95.2604 20.82 89.1104 19.43L87.5204 19.07C85.7729 18.675 84.8979 18.4775 84.1954 17.945C83.4954 17.4125 83.0454 16.605 82.1454 14.99L81.3279 13.52C78.1604 7.84 76.5779 5 74.2104 5C71.8429 5 70.2604 7.84 67.0929 13.52Z" fill="url(#paint3_linear_182_2238)"/>
<path d="M139.71 48.5788C137.552 49.0971 135.299 49.072 133.153 48.5058C131.006 47.9396 129.034 46.85 127.413 45.3346C125.791 43.8192 124.571 41.9253 123.86 39.8224C123.15 37.7196 122.973 35.4734 123.344 33.2852C123.288 33.3406 123.229 33.3918 123.166 33.4383C122.723 33.7746 122.171 33.8994 121.066 34.1488L120.063 34.3762C116.179 35.2557 114.237 35.6946 113.774 37.1804C113.313 38.6646 114.636 40.2136 117.284 43.3099L117.969 44.1104C118.721 44.9899 119.098 45.4304 119.267 45.9736C119.436 46.5183 119.379 47.1057 119.266 48.2788L119.161 49.3478C118.762 53.4799 118.561 55.5452 119.771 56.4625C120.98 57.3799 122.799 56.5446 126.434 54.8694L127.377 54.4367C128.409 53.9599 128.926 53.7231 129.473 53.7231C130.021 53.7231 130.538 53.9599 131.572 54.4367L132.511 54.8694C136.148 56.5431 137.967 57.3799 139.174 56.4641C140.386 55.5452 140.185 53.4799 139.786 49.3478L139.71 48.5788Z" fill="url(#paint4_linear_182_2238)"/>
<path opacity="0.5" d="M124.978 30.6447L124.46 31.5731C123.892 32.5931 123.608 33.1031 123.166 33.4395C123.229 33.3921 123.288 33.341 123.344 33.2863C122.973 35.4747 123.15 37.7211 123.86 39.8241C124.571 41.9271 125.791 43.8211 127.413 45.3366C129.035 46.852 131.007 47.9416 133.154 48.5076C135.3 49.0737 137.553 49.0985 139.711 48.58L139.68 48.28C139.568 47.1068 139.511 46.5195 139.68 45.9747C139.849 45.4316 140.224 44.991 140.978 44.1116L141.663 43.311C144.311 40.2163 145.634 38.6674 145.171 37.1816C144.71 35.6958 142.768 35.2552 138.884 34.3774L137.88 34.15C136.776 33.9005 136.223 33.7758 135.78 33.4395C135.338 33.1031 135.053 32.5931 134.485 31.5731L133.969 30.6447C131.968 27.0574 130.969 25.2637 129.473 25.2637C127.978 25.2637 126.979 27.0574 124.978 30.6447Z" fill="url(#paint5_linear_182_2238)"/>
<defs>
<linearGradient id="paint0_linear_182_2238" x1="16.3627" y1="33.2852" x2="16.3627" y2="56.8413" gradientUnits="userSpaceOnUse">
<stop stop-color="#F2F2F2"/>
<stop offset="1" stop-color="#3D1892"/>
</linearGradient>
<linearGradient id="paint1_linear_182_2238" x1="23.6825" y1="25.2637" x2="23.6825" y2="48.9513" gradientUnits="userSpaceOnUse">
<stop stop-color="#F2F2F2"/>
<stop offset="1" stop-color="#3D1892"/>
</linearGradient>
<linearGradient id="paint2_linear_182_2238" x1="70.1183" y1="17.7031" x2="70.1183" y2="55.0003" gradientUnits="userSpaceOnUse">
<stop stop-color="#F2F2F2"/>
<stop offset="1" stop-color="#3D1892"/>
</linearGradient>
<linearGradient id="paint3_linear_182_2238" x1="81.7078" y1="5" x2="81.7078" y2="42.5055" gradientUnits="userSpaceOnUse">
<stop stop-color="#F2F2F2"/>
<stop offset="1" stop-color="#3D1892"/>
</linearGradient>
<linearGradient id="paint4_linear_182_2238" x1="126.889" y1="33.2852" x2="126.889" y2="56.8413" gradientUnits="userSpaceOnUse">
<stop stop-color="#F2F2F2"/>
<stop offset="1" stop-color="#3D1892"/>
</linearGradient>
<linearGradient id="paint5_linear_182_2238" x1="134.209" y1="25.2637" x2="134.209" y2="48.9513" gradientUnits="userSpaceOnUse">
<stop stop-color="#F2F2F2"/>
<stop offset="1" stop-color="#3D1892"/>
</linearGradient>
</defs>
</svg>
