<svg width="21" height="21" viewBox="0 0 21 21" fill="none" xmlns="http://www.w3.org/2000/svg">
<path d="M4.14638 2.40078L6.11043 4.36482V6.98355M16.8036 2.40078L14.8395 4.36482V6.98355M10.475 2.40078V6.11064M4.14638 3.05546C4.23236 3.05546 4.31749 3.03852 4.39692 3.00562C4.47635 2.97272 4.54852 2.9245 4.60931 2.86371C4.6701 2.80291 4.71833 2.73074 4.75123 2.65131C4.78413 2.57188 4.80106 2.48675 4.80106 2.40078C4.80106 2.3148 4.78413 2.22967 4.75123 2.15024C4.71833 2.07081 4.6701 1.99864 4.60931 1.93785C4.54852 1.87705 4.47635 1.82883 4.39692 1.79593C4.31749 1.76303 4.23236 1.74609 4.14638 1.74609C3.97275 1.74609 3.80623 1.81507 3.68345 1.93785C3.56067 2.06062 3.4917 2.22714 3.4917 2.40078C3.4917 2.57441 3.56067 2.74093 3.68345 2.86371C3.80623 2.98648 3.97275 3.05546 4.14638 3.05546ZM16.8036 3.05546C16.7176 3.05546 16.6325 3.03852 16.553 3.00562C16.4736 2.97272 16.4014 2.9245 16.3406 2.86371C16.2798 2.80291 16.2316 2.73074 16.1987 2.65131C16.1658 2.57188 16.1489 2.48675 16.1489 2.40078C16.1489 2.3148 16.1658 2.22967 16.1987 2.15024C16.2316 2.07081 16.2798 1.99864 16.3406 1.93785C16.4014 1.87705 16.4736 1.82883 16.553 1.79593C16.6325 1.76303 16.7176 1.74609 16.8036 1.74609C16.9772 1.74609 17.1437 1.81507 17.2665 1.93785C17.3893 2.06062 17.4583 2.22714 17.4583 2.40078C17.4583 2.57441 17.3893 2.74093 17.2665 2.86371C17.1437 2.98648 16.9772 3.05546 16.8036 3.05546ZM10.475 3.05546C10.561 3.05546 10.6461 3.03852 10.7255 3.00562C10.8049 2.97272 10.8771 2.9245 10.9379 2.86371C10.9987 2.80291 11.0469 2.73074 11.0798 2.65131C11.1127 2.57188 11.1297 2.48675 11.1297 2.40078C11.1297 2.3148 11.1127 2.22967 11.0798 2.15024C11.0469 2.07081 10.9987 1.99864 10.9379 1.93785C10.8771 1.87705 10.8049 1.82883 10.7255 1.79593C10.6461 1.76303 10.561 1.74609 10.475 1.74609C10.3013 1.74609 10.1348 1.81507 10.012 1.93785C9.88927 2.06062 9.82029 2.22714 9.82029 2.40078C9.82029 2.57441 9.88927 2.74093 10.012 2.86371C10.1348 2.98648 10.3013 3.05546 10.475 3.05546Z" stroke="#0D0D0D" stroke-width="1.30936" stroke-linecap="round" stroke-linejoin="round"/>
<path d="M13.0937 13.9664C13.0937 13.2719 12.8178 12.6058 12.3267 12.1147C11.8355 11.6236 11.1695 11.3477 10.4749 11.3477C9.7804 11.3477 9.11432 11.6236 8.62321 12.1147C8.1321 12.6058 7.8562 13.2719 7.8562 13.9664C7.8562 14.6609 8.1321 15.327 8.62321 15.8181C9.11432 16.3092 9.7804 16.5851 10.4749 16.5851C11.1695 16.5851 11.8355 16.3092 12.3267 15.8181C12.8178 15.327 13.0937 14.6609 13.0937 13.9664Z" stroke="#0D0D0D" stroke-width="1.30936"/>
<path d="M10.4749 8.72852C15.7124 8.72852 19.204 13.966 19.204 13.966C19.204 13.966 15.7124 19.2034 10.4749 19.2034C5.23749 19.2034 1.74585 13.966 1.74585 13.966C1.74585 13.966 5.23749 8.72852 10.4749 8.72852Z" stroke="#0D0D0D" stroke-width="1.30936" stroke-linejoin="round"/>
</svg>
